<svg width="28" height="34" viewBox="0 0 28 34" fill="none" xmlns="http://www.w3.org/2000/svg">
<path d="M13.5997 0C8.04037 0 3.48438 4.5424 3.48438 10.0864C3.48438 12.2346 4.1705 14.231 5.3316 15.8719L12.3652 28.0313C13.3502 29.3182 14.005 29.0737 14.8241 27.9633L22.5822 14.7611C22.7386 14.4775 22.8617 14.1756 22.9688 13.8672C23.4611 12.6675 23.7142 11.3832 23.714 10.0864C23.7144 4.5424 19.1597 0 13.5997 0ZM13.5997 4.726C16.5938 4.726 18.9744 7.10124 18.9744 10.0864C18.9744 13.0716 16.5938 15.4459 13.5997 15.4459C10.606 15.4459 8.22432 13.072 8.22432 10.0864C8.22432 7.10124 10.606 4.72634 13.5997 4.72634V4.726Z" fill="#424242"/>
<path d="M8.16204 23.4794C3.3592 24.158 0 25.7815 0 28.1714C0 31.3905 5.61272 34 13.6 34C21.5873 34 27.2 31.3905 27.2 28.1714C27.2 25.7815 23.8411 24.158 19.0386 23.4794L18.3733 24.6123C21.9929 25.1144 24.48 26.1698 24.48 27.3945C24.48 29.1115 19.6088 30.5031 13.6 30.5031C7.59118 30.5031 2.72 29.1115 2.72 27.3945C2.71966 26.1739 5.19044 25.1195 8.8213 24.6153C8.602 24.2366 8.38168 23.8585 8.16204 23.4794Z" fill="#424242"/>
</svg>
