<svg width="27" height="34" viewBox="0 0 27 34" fill="none" xmlns="http://www.w3.org/2000/svg">
<path d="M5.02761 22.3871L6.28611 21.5709C8.49707 24.9799 11.6028 28.0571 13.9423 29.8162C15.3893 30.9042 17.1366 31.7842 18.7457 32.215C20.4231 32.6642 21.6077 32.5415 22.2369 32.1334C22.655 31.8623 23.2816 31.2697 23.8568 30.6273C24.01 30.4563 24.1503 30.2921 24.2724 30.1427L24.2682 30.1363L23.556 29.0381L20.4671 24.2753C20.0692 24.353 19.6477 24.5058 19.4206 24.6344C19.1354 24.7961 18.7547 25.1759 18.3878 25.6418C18.2202 25.8544 18.081 26.0519 17.9841 26.1957C17.9361 26.2671 17.8994 26.3239 17.8758 26.3609C17.864 26.3794 17.8556 26.3929 17.8507 26.4007L17.8472 26.4065L17.847 26.4069L17.8467 26.4072L17.8464 26.4078L17.8462 26.4081L17.846 26.4085L17.6478 26.7356L17.3146 26.9281C16.4826 27.4088 15.6796 27.3694 14.9749 27.1498C14.5647 27.022 14.0758 26.7885 13.6327 26.5769C13.491 26.5093 13.3541 26.4438 13.2259 26.3848C12.1261 25.8788 11.0956 24.9211 10.2191 23.9451C9.31604 22.9395 8.45432 21.7736 7.71159 20.6989L7.68655 20.6626L7.66367 20.625C6.9853 19.5086 6.27219 18.2463 5.72225 17.0115C5.18855 15.8132 4.73442 14.4818 4.72089 13.2712L5.02761 22.3871ZM5.02761 22.3871L6.2861 21.5709C3.93236 17.9418 2.53354 14.0777 1.88001 11.2178C1.47671 9.45282 1.38586 7.49854 1.64864 5.85368C1.9226 4.13892 2.51778 3.10737 3.14699 2.69929C3.5651 2.42813 4.36165 2.0977 5.18283 1.83441C5.40142 1.76433 5.60859 1.70321 5.79487 1.65262M5.02761 22.3871L5.79487 1.65262M5.79487 1.65262L5.79903 1.65905L6.51122 2.75716L6.51123 2.75718L9.60022 7.51999C9.36706 7.85143 9.05576 8.17387 8.84575 8.32879L5.79487 1.65262ZM6.5854 9.04295L6.585 9.043L6.58434 9.04308L6.58399 9.04312L6.58393 9.04313L6.58353 9.04318L6.20401 9.09071L5.89235 9.31644C5.11417 9.88006 4.82262 10.6292 4.73571 11.3623C4.68512 11.789 4.69893 12.3306 4.71144 12.8215C4.71544 12.9783 4.7193 13.13 4.72089 13.271L6.5854 9.04295ZM6.5854 9.04295L6.59254 9.04198M6.5854 9.04295L6.59254 9.04198M6.83414 9.0038C7.00492 8.97401 7.24212 8.92743 7.50457 8.8612C8.07953 8.71609 8.58154 8.52344 8.84553 8.32896L6.83414 9.0038ZM6.83414 9.0038C6.74937 9.01858 6.68256 9.02895 6.63911 9.03536M6.83414 9.0038L6.63911 9.03536M6.63911 9.03536C6.61742 9.03855 6.60167 9.04074 6.59254 9.04198M6.63911 9.03536L6.59254 9.04198M6.50926 1.49681C6.5087 1.49722 6.49851 1.49844 6.48038 1.4992C6.50076 1.49678 6.50983 1.49639 6.50926 1.49681ZM24.692 29.5794C24.7001 29.5631 24.7054 29.5543 24.706 29.554C24.7066 29.5536 24.7026 29.5617 24.692 29.5794Z" fill="#424242" stroke="#424242" stroke-width="3"/>
</svg>
