<svg width="33" height="23" viewBox="0 0 33 23" fill="none" xmlns="http://www.w3.org/2000/svg">
<path d="M32.6025 20.125V2.875C32.6025 1.28417 31.3183 0 29.7275 0H2.875C1.28417 0 0 1.28417 0 2.875V20.125C0 21.7158 1.28417 23 2.875 23H29.7275C31.3183 23 32.6025 21.7158 32.6025 20.125ZM30.0917 2.66417C30.7242 3.29667 30.3792 3.94833 30.0342 4.27417L22.2525 11.4042L29.7275 19.1858C29.9575 19.4542 30.1108 19.8758 29.8425 20.1633C29.5933 20.47 29.0183 20.4508 28.7692 20.2592L20.3933 13.11L16.2917 16.8475L12.2092 13.11L3.83333 20.2592C3.58417 20.4508 3.00917 20.47 2.76 20.1633C2.49167 19.8758 2.645 19.4542 2.875 19.1858L10.35 11.4042L2.56833 4.27417C2.22333 3.94833 1.87833 3.29667 2.51083 2.66417C3.14333 2.03167 3.795 2.33833 4.33167 2.79833L16.2917 12.4583L28.2708 2.79833C28.8075 2.33833 29.4592 2.03167 30.0917 2.66417Z" fill="#424242"/>
</svg>
