<svg width="17" height="28" viewBox="0 0 17 28" fill="none" xmlns="http://www.w3.org/2000/svg">
<path d="M16.8999 0.800028C16.8999 0.600028 16.8 0.400022 16.7 0.200022C16.6 0.100022 16.4 2.50647e-05 16.2 2.50647e-05H12.2999C10.3999 -0.0999749 8.4 0.600019 7 1.90002C5.6 3.20002 4.69998 5.00003 4.59998 7.00003V11.2H0.699951C0.499951 11.2 0.299951 11.3 0.199951 11.4C0.0999512 11.5 0 11.7 0 11.9V15.9C0 16.1 0.0999512 16.3 0.199951 16.4C0.299951 16.5 0.499951 16.6 0.699951 16.6H4.59998V27C4.59998 27.2 4.69993 27.4 4.79993 27.6C4.89993 27.7 5.09993 27.8 5.29993 27.8H9.8999C10.0999 27.8 10.2999 27.7 10.3999 27.6C10.4999 27.5 10.6 27.3 10.6 27V16.6H14.7C14.9 16.6 15 16.5 15.2 16.4C15.3 16.3 15.4 16.1 15.5 16L16.6 12C16.6 11.9 16.6 11.8 16.6 11.6C16.6 11.4 16.5 11.4 16.5 11.3C16.4 11.2 16.3 11.1 16.2 11.1C16.1 11 15.9999 11 15.8999 11H10.7V7.00003C10.7 6.60003 10.9 6.30003 11.2 6.00003C11.5 5.70003 11.9 5.60003 12.2 5.60003H16.1C16.3 5.60003 16.5 5.50002 16.6 5.40002C16.7 5.30002 16.7999 5.10001 16.7999 4.80001V0.800028H16.8999Z" fill="#BCBCBC"/>
</svg>
