<svg width="23" height="23" viewBox="0 0 23 23" fill="none" xmlns="http://www.w3.org/2000/svg">
<path d="M11.3999 0C8.2999 0 7.89995 6.10203e-06 6.69995 0.100006C5.49995 0.200006 4.5999 0.400006 3.8999 0.600006C3.0999 0.900006 2.3999 1.29999 1.8999 1.89999C1.2999 2.49999 0.899976 3.19999 0.599976 3.89999C0.299976 4.59999 0.0999756 5.50001 0.0999756 6.70001C-2.44156e-05 7.90001 0 8.29999 0 11.4C0 14.5 -2.44156e-05 14.9 0.0999756 16.1C0.199976 17.3 0.299976 18.2 0.599976 18.9C0.899976 19.7 1.3999 20.4 1.8999 20.9C2.4999 21.5 3.1999 21.9 3.8999 22.2C4.5999 22.5 5.49995 22.7 6.69995 22.7C7.89995 22.8 8.2999 22.8 11.3999 22.8C14.4999 22.8 14.9 22.8 16.1 22.7C17.3 22.6 18.1999 22.4 18.8999 22.2C19.6999 21.9 20.3999 21.5 20.8999 20.9C21.4999 20.3 21.9 19.6 22.2 18.9C22.5 18.2 22.7 17.3 22.7 16.1C22.8 14.9 22.7999 14.5 22.7999 11.4C22.7999 8.29999 22.8 7.90001 22.7 6.70001C22.6 5.50001 22.5 4.59999 22.2 3.89999C21.9 3.09999 21.3999 2.39999 20.8999 1.89999C20.2999 1.29999 19.5999 0.900006 18.8999 0.600006C18.1999 0.300006 17.3 0.100006 16.1 0.100006C14.9 6.10203e-06 14.4999 0 11.3999 0ZM11.3999 2.10001C14.4999 2.10001 14.8 2.10001 16 2.20001C17.1 2.30001 17.7 2.40001 18.1 2.60001C18.6 2.80001 19.0999 3.1 19.3999 3.5C19.7999 3.9 20.0999 4.29999 20.2999 4.79999C20.4999 5.19999 20.6 5.79999 20.7 6.89999C20.8 8.09999 20.7999 8.5 20.7999 11.5C20.7999 14.6 20.8 14.9 20.7 16.1C20.6 17.2 20.4999 17.8 20.2999 18.2C20.0999 18.7 19.7999 19.1 19.3999 19.5C18.9999 19.9 18.6 20.2 18.1 20.4C17.7 20.6 17.1 20.7 16 20.8C14.8 20.9 14.3999 20.9 11.2999 20.9C8.19993 20.9 7.89998 20.9 6.59998 20.8C5.49998 20.7 4.9 20.6 4.5 20.4C4 20.2 3.59995 19.9 3.19995 19.5C2.79995 19.1 2.49993 18.7 2.29993 18.2C2.09993 17.8 1.8999 17.2 1.8999 16.1C1.8999 14.9 1.79993 14.5 1.79993 11.5C1.79993 8.4 1.7999 8.09999 1.8999 6.79999C1.9999 5.69999 2.09993 5.10001 2.29993 4.70001C2.49993 4.20001 2.69995 3.79999 3.19995 3.39999C3.59995 2.99999 4 2.7 4.5 2.5C4.9 2.3 5.49998 2.20001 6.59998 2.10001C7.89998 2.10001 8.2999 2.00001 11.3999 2.10001ZM11.3999 5.60001C10.5999 5.60001 9.89998 5.8 9.09998 6C8.39998 6.3 7.69995 6.69999 7.19995 7.29999C6.69995 7.79999 6.1999 8.50001 5.8999 9.20001C5.5999 9.90001 5.5 10.7 5.5 11.5C5.5 12.3 5.5999 13 5.8999 13.8C6.1999 14.5 6.59995 15.2 7.19995 15.7C7.79995 16.2 8.39998 16.7 9.09998 17C9.79998 17.3 10.5999 17.5 11.3999 17.4C12.1999 17.4 12.9 17.2 13.7 17C14.4 16.7 15.1 16.3 15.6 15.7C16.1 15.2 16.5999 14.5 16.8999 13.8C17.1999 13.1 17.2999 12.3 17.2999 11.5C17.2999 10.7 17.1999 10 16.8999 9.20001C16.5999 8.50001 16.2 7.79999 15.6 7.29999C15 6.79999 14.4 6.3 13.7 6C12.9 5.8 12.1999 5.60001 11.3999 5.60001ZM11.3999 15.3C9.2999 15.3 7.59998 13.6 7.59998 11.5C7.59998 9.4 9.2999 7.70001 11.3999 7.70001C13.4999 7.70001 15.2 9.4 15.2 11.5C15.2 13.6 13.4999 15.3 11.3999 15.3ZM18.8999 5.39999C18.8999 5.79999 18.8 6.09999 18.5 6.39999C18.2 6.69999 17.9 6.79999 17.5 6.79999C17.3 6.79999 17.1 6.80001 17 6.70001C16.8 6.60001 16.7 6.49999 16.5 6.39999C16.4 6.29999 16.3 6.1 16.2 6C16.1 5.8 16.1 5.7 16.1 5.5C16.1 5.3 16.1 5.1 16.2 5C16.3 4.8 16.4 4.70001 16.5 4.60001C16.6 4.50001 16.8 4.39999 17 4.29999C17.2 4.19999 17.3 4.20001 17.5 4.20001C18.3 4.00001 18.8999 4.59999 18.8999 5.39999Z" fill="#BCBCBC"/>
</svg>
