<svg width="23" height="23" viewBox="0 0 23 23" fill="none" xmlns="http://www.w3.org/2000/svg">
<path d="M12.692 9.67652C13.0079 9.33195 13.2663 8.95867 13.6109 8.64281C14.6158 7.69525 15.7931 7.2071 17.2001 7.23582C17.9754 7.23582 18.722 7.29325 19.4398 7.52296C21.134 8.0111 22.1102 9.15967 22.5696 10.8251C22.9142 12.0598 22.9716 13.3232 23.0004 14.5866C23.0004 17.257 23.0004 19.9275 23.0004 22.6266C23.0004 22.885 22.9429 22.9424 22.6845 22.9424C21.3062 22.9424 19.9279 22.9424 18.5497 22.9424C18.32 22.9424 18.2625 22.8563 18.2625 22.6266C18.2625 20.071 18.2625 17.5442 18.2625 14.9886C18.2625 14.3569 18.2338 13.7252 18.0328 13.0935C17.717 11.9449 16.8843 11.3706 15.6783 11.4281C14.0416 11.5142 13.1801 12.3182 12.9791 13.9836C12.9217 14.3856 12.893 14.7876 12.893 15.1896C12.893 17.659 12.893 20.1572 12.893 22.6266C12.893 22.885 12.8356 22.9424 12.5772 22.9424C11.1989 22.9424 9.79188 22.9424 8.41361 22.9424C8.18389 22.9424 8.12646 22.885 8.12646 22.6553C8.12646 17.7452 8.12646 12.8351 8.12646 7.92496C8.12646 7.69525 8.2126 7.63782 8.44231 7.63782C9.76316 7.63782 11.084 7.63782 12.4049 7.63782C12.6346 7.63782 12.7207 7.72396 12.692 7.95367C12.692 8.49924 12.692 9.07352 12.692 9.67652Z" fill="#BCBCBC"/>
<path d="M5.13958 15.2758C5.13958 17.7165 5.13958 20.1285 5.13958 22.5692C5.13958 22.8276 5.08215 22.9138 4.79501 22.9138C3.41673 22.885 2.03847 22.9138 0.660188 22.9138C0.430475 22.9138 0.373047 22.8563 0.373047 22.6266C0.373047 17.7165 0.373047 12.8064 0.373047 7.89627C0.373047 7.69527 0.430465 7.60913 0.631463 7.60913C2.03846 7.60913 3.41674 7.60913 4.82374 7.60913C5.08216 7.60913 5.13958 7.72399 5.13958 7.9537C5.13958 10.3944 5.13958 12.8351 5.13958 15.2758Z" fill="#BCBCBC"/>
<path d="M5.51311 2.72784C5.51311 4.24969 4.27841 5.4844 2.75657 5.4844C1.26343 5.4844 0 4.24969 0 2.75656C0 1.23471 1.23472 0 2.75657 0C4.27841 0 5.51311 1.23471 5.51311 2.72784Z" fill="#BCBCBC"/>
</svg>
