<svg width="57" height="76" viewBox="0 0 57 76" fill="none" xmlns="http://www.w3.org/2000/svg">
<path d="M13.6996 67.8C14.9996 69 17.0997 69 18.2997 67.8L21.3997 65H10.5996L13.6996 67.8Z" fill="#1AAF84"/>
<path d="M56.0996 37.2C56.0996 29.3 50.6996 22.7 42.9996 19.9V16.8C42.9996 13.9 42.2996 8.89999 34.0996 8.89999H13.5996L15.8997 11.8C17.1997 13.5 19.3996 14.5 21.5996 14.5H34.2997V14.6L20.7997 16.6C17.4997 17.1 14.1996 16.2 11.6996 14.2C8.29958 11.6 10.1996 6.39999 14.6996 6.39999C14.6996 6.39999 14.6997 6.39999 14.7997 6.39999H36.2997C38.3997 6.39999 40.3996 5.50001 41.6996 4.10001L45.4996 0H15.9996C6.19963 0 0.599609 4.89999 0.599609 12.8V24.1C0.599609 24.1 0.699658 24.1 0.899658 24V24.1C0.899658 24.1 23.0997 24.1 35.2997 24.1V33.6C34.0997 33 30.6996 31.4 28.5996 30.3C26.4996 29.2 23.8996 29.1 22.0996 30.6L15.8997 34.7L22.6996 40.7V37.9H24.6996C24.6996 38 24.6996 38.1 24.6996 38.2C24.6996 39.4 25.7996 40.4 27.1996 40.4C28.5996 40.4 29.6996 39.4 29.6996 38.2C29.6996 38.1 29.6996 38 29.6996 37.9H35.3997V55.9C34.5997 55.9 32.5997 56 29.2997 56.1C26.6997 56.2 23.9996 55.6 22.4996 54.6C20.6996 53.4 18.9996 51.9 18.9996 51.9L13.7997 55.1V33.9L8.59961 29.6C7.19961 28.5 5.19958 28.4 3.69958 29.4L0.899658 31.3L7.99963 36.5C7.99963 36.5 7.99963 43.6 7.99963 57.4C6.49963 58.8 1.89966 57.8 1.89966 57.8C1.89966 57.8 4.09968 60 4.79968 60.7C5.89968 61.9 8.79968 62.6 10.7997 61.6C11.7997 61.1 14.9996 59.6 14.9996 59.6L19.4996 61.8C21.5996 62.8 23.5997 63.4 27.3997 61.1C28.9997 60.1 34.0996 57 35.4996 56.1V56.2V75.9C41.5996 75.9 46.5996 71.4 46.5996 65.9C46.5996 61.1 42.8997 57.2 37.8997 56.2V55.9C47.8997 54.8 56.0996 46.9 56.0996 37.2ZM35.0996 37.6L27.1996 33.8H35.0996V37.6Z" fill="#1AAF84"/>
</svg>
