<svg width="164" height="43" viewBox="0 0 164 43" fill="none" xmlns="http://www.w3.org/2000/svg">
<path d="M7.59845 38.2C8.29845 38.8 9.49844 38.8 10.1984 38.2L11.8984 36.6H5.89844L7.59845 38.2Z" fill="#1AAF84"/>
<path d="M31.1992 21.2C31.1992 16.8 28.1992 13.1 23.8992 11.6V9.9C23.8992 8.3 23.4992 5.5 18.8992 5.5H7.49922L8.79922 7.1C9.49922 8 10.6992 8.6 11.9992 8.6H18.9992V8.7L11.4992 9.8C9.69922 10.1 7.79922 9.6 6.39922 8.5C4.49922 7 5.59923 4.2 8.09923 4.1H20.0992C21.2992 4.1 22.3992 3.6 23.0992 2.8L25.1992 0.5H8.79922C3.29922 0.5 0.199219 3.3 0.199219 7.6V13.9C0.199219 13.9 0.299223 13.9 0.399223 13.9C0.399223 13.9 12.6992 13.9 19.4992 13.9V19.2C18.8992 18.9 16.8992 18 15.7992 17.4C14.5992 16.8 13.1992 16.8 12.1992 17.5L8.69922 19.8L12.4992 23.1V21.5H13.5992C13.5992 21.6 13.5992 21.6 13.5992 21.7C13.5992 22.4 14.1992 22.9 14.9992 22.9C15.7992 22.9 16.3992 22.3 16.3992 21.7C16.3992 21.6 16.3992 21.6 16.3992 21.5H19.5992V31.5C19.1992 31.5 18.0992 31.6 16.1992 31.6C14.7992 31.7 13.2992 31.3 12.3992 30.8C11.3992 30.1 10.4992 29.3 10.4992 29.3L7.59923 31.1V19.3L4.69922 16.9C3.89922 16.3 2.79922 16.2 1.99922 16.8L0.399223 17.9L4.29922 20.8C4.29922 20.8 4.29922 24.7 4.29922 32.4C3.39922 33.2 0.899223 32.6 0.899223 32.6C0.899223 32.6 2.09922 33.8 2.49922 34.2C3.09922 34.9 4.69922 35.2 5.79922 34.7C6.39922 34.4 8.09923 33.6 8.09923 33.6L10.5992 34.8C11.6992 35.4 12.8992 35.7 14.9992 34.4C15.8992 33.9 18.6992 32.1 19.4992 31.6V31.7V42.6C22.8992 42.6 25.6992 40.1 25.6992 37.1C25.6992 34.4 23.5992 32.2 20.7992 31.7V31.5C26.6992 30.9 31.1992 26.6 31.1992 21.2ZM19.5992 21.4L15.1992 19.3H19.5992V21.4Z" fill="#1AAF84"/>
<path d="M67.4984 21.4C63.2984 21.6 59.0984 22.9 55.8984 26L56.5984 26.8C60.6985 23.9 63.3984 23.9 63.3984 23.9C63.3984 23.9 64.6985 32.1 56.5984 34.4C54.4984 32.9 51.4984 31.7 51.6984 24.2C51.8984 15 57.3984 14.4 58.3984 14.4C60.4984 14.4 62.2984 15.4 62.8984 18.4L66.2984 16.8C65.2984 15 63.1984 13 58.2984 13C48.3984 13 46.8984 21.9 46.8984 24.2C46.8984 31.7 51.9984 34.9 56.1984 35.5C69.7984 35.4 68.1984 23.3 67.4984 21.4Z" fill="#1AAF84"/>
<path d="M87.598 27.9C87.598 28.9 87.1979 33.6 81.6979 33.6C77.7979 33.6 76.098 32.2 76.098 27.7V13.4H71.598V27.6C71.598 29.4 71.398 35.3 81.298 35.3C83.498 35.3 89.498 34.2 89.498 27.9V13.4H87.598V27.9Z" fill="#1AAF84"/>
<path d="M104.898 24.5C106.798 23.9 109.598 22.7 109.598 19.2C109.598 18.3 109.098 12.9 100.898 12.9C99.298 12.9 95.898 13.3 93.498 14.2V34.8H97.998V25H99.998C102.798 25 103.498 26.8 103.998 28.6L105.798 34.8H110.498L108.698 28.5C107.998 26.3 106.698 25.2 104.898 24.5ZM99.498 23.8H97.998V16.4C97.998 14.9 99.2981 14.1 100.598 14.1C103.398 14.1 104.998 16.6 104.998 19.2C104.998 23.2 101.898 23.8 99.498 23.8Z" fill="#1AAF84"/>
<path d="M118.898 13.4H114.398V34.9H118.898V13.4Z" fill="#1AAF84"/>
<path d="M146.898 13.4H142.398V34.8H142.598H146.898H154.598V33H146.898V13.4Z" fill="#1AAF84"/>
<path d="M163.098 13.4H158.598V34.9H163.098V13.4Z" fill="#1AAF84"/>
<path d="M128.398 15V21.8H136.198V23H128.398V33H137.998V34.8H123.898V13.4H137.998V15H128.398Z" fill="#1AAF84"/>
</svg>
