<svg width="167" height="129" viewBox="0 0 167 129" fill="none" xmlns="http://www.w3.org/2000/svg">
<path d="M76.7452 54.1814C77.7512 55.0437 79.4758 55.0437 80.4819 54.1814L82.9251 51.882H74.302L76.7452 54.1814Z" fill="white"/>
<path d="M110.663 29.7496C110.663 23.426 106.351 18.1084 100.171 15.9527V13.5095C100.171 11.21 99.5963 7.18589 92.9853 7.18589H76.6015L78.4698 9.48537C79.4759 10.7788 81.2005 11.6411 83.0688 11.6411H93.129V11.7849L82.3502 13.3657C79.7633 13.7969 77.0326 13.0783 75.0206 11.4974C72.29 9.34165 73.8709 5.31755 77.4638 5.17384H94.7099C96.4346 5.17384 98.0155 4.45525 99.0215 3.30551L102.04 0H78.4698C70.5654 0 66.1101 4.02409 66.1101 10.204V19.2582C66.1101 19.2582 66.2538 19.2582 66.3975 19.2582C66.3975 19.2582 84.0748 19.2582 93.8476 19.2582V26.8752C92.9853 26.4441 90.111 25.1506 88.5301 24.2883C86.8055 23.426 84.7934 23.426 83.3562 24.432L78.3261 27.7375L83.7874 32.4802V30.1807H85.3683C85.3683 30.3244 85.3683 30.3244 85.3683 30.4681C85.3683 31.4742 86.2306 32.1928 87.3803 32.1928C88.5301 32.1928 89.3924 31.3305 89.3924 30.4681C89.3924 30.3244 89.3924 30.3244 89.3924 30.1807H93.9914V44.5525C93.4165 44.5525 91.8356 44.6962 89.1049 44.6962C87.0929 44.8399 84.9371 44.2651 83.6437 43.5465C82.2065 42.5404 80.913 41.3907 80.913 41.3907L76.7452 43.9776V27.0189L72.5774 23.5697C71.4277 22.7074 69.8468 22.5637 68.697 23.426L66.3975 25.0069L72.0025 29.1747C72.0025 29.1747 72.0025 34.7797 72.0025 45.846C70.7091 46.9957 67.1161 46.1334 67.1161 46.1334C67.1161 46.1334 68.8407 47.858 69.4156 48.4329C70.2779 49.4389 72.5774 49.87 74.1583 49.1515C75.0206 48.7203 77.4638 47.5706 77.4638 47.5706L81.0568 49.2952C82.6377 50.1575 84.3623 50.5886 87.3803 48.7203C88.6738 48.0017 92.6979 45.4148 93.8476 44.6962V44.8399V60.5052C98.734 60.5052 102.758 56.9122 102.758 52.6007C102.758 48.7203 99.7401 45.5585 95.716 44.8399V44.5525C104.195 43.6902 110.663 37.5103 110.663 29.7496ZM93.9914 30.037L87.6678 27.0189H93.9914V30.037Z" fill="white"/>
<path d="M29.6059 108.507C23.5697 108.794 17.5336 110.663 12.9346 115.118L13.9406 116.268C19.8331 112.1 23.7134 112.1 23.7134 112.1C23.7134 112.1 25.5818 123.885 13.9406 127.19C10.9226 125.034 6.61102 123.31 6.89845 112.531C7.18589 99.3089 15.0904 98.4466 16.5275 98.4466C19.5456 98.4466 22.1325 99.8838 22.9948 104.195L27.8813 101.896C26.4441 99.3089 23.426 96.4346 16.3838 96.4346C2.15578 96.4346 0 109.225 0 112.531C0 123.31 7.32961 127.909 13.3658 128.771C32.9114 128.627 30.6119 111.237 29.6059 108.507Z" fill="white"/>
<path d="M58.4931 117.849C58.4931 119.286 57.9182 126.04 50.0137 126.04C44.4087 126.04 41.9655 124.028 41.9655 117.561V97.0095H35.4982V117.417C35.4982 120.004 35.2108 128.484 49.4389 128.484C52.6006 128.484 61.2237 126.903 61.2237 117.849V97.0095H58.4931V117.849Z" fill="white"/>
<path d="M83.3565 112.962C86.0871 112.1 90.1112 110.375 90.1112 105.345C90.1112 104.052 89.3926 96.2909 77.6078 96.2909C75.3083 96.2909 70.4219 96.8658 66.9727 98.1592V127.765H73.44V113.681H76.3143C80.3384 113.681 81.3444 116.268 82.063 118.855L84.6499 127.765H91.4047L88.8177 118.711C87.8117 115.549 85.9434 113.968 83.3565 112.962ZM75.5957 111.956H73.44V101.321C73.44 99.1652 75.3083 98.0155 77.1766 98.0155C81.2007 98.0155 83.5002 101.608 83.5002 105.345C83.5002 111.094 79.0449 111.956 75.5957 111.956Z" fill="white"/>
<path d="M103.477 97.0095H97.0095V127.909H103.477V97.0095Z" fill="white"/>
<path d="M143.718 97.0095H137.25V127.765H137.538H143.718H154.784V125.178H143.718V97.0095Z" fill="white"/>
<path d="M167 97.0095H160.533V127.909H167V97.0095Z" fill="white"/>
<path d="M117.13 99.309V109.082H128.34V110.806H117.13V125.178H130.927V127.765H110.663V97.0095H130.927V99.309H117.13Z" fill="white"/>
</svg>
