<?xml version="1.0" encoding="utf-8"?>
<!-- Generator: Adobe Illustrator 25.0.1, SVG Export Plug-In . SVG Version: 6.00 Build 0)  -->
<svg version="1.1" xmlns="http://www.w3.org/2000/svg" xmlns:xlink="http://www.w3.org/1999/xlink" x="0px" y="0px"
	 viewBox="0 0 222.6 68.9" style="enable-background:new 0 0 222.6 68.9;" xml:space="preserve">
<style type="text/css">
	.st0{fill:#FFFFFF;}
</style>
<g id="Layer_1">
</g>
<g id="Layer_2">
	<g>
		<g>
			<path class="st0" d="M203.8,35.1c0-0.9-0.3-5.1-5.4-5.1c-3.6,0-5.1,1.3-5.1,5.4v13h-4.1v-13c0-1.6-0.1-7,8.8-7c2,0,7.5,1,7.5,6.7
				v13.2h-1.8V35.1z"/>
			<path class="st0" d="M157.9,28.3c-6.5,0-8.6,4.5-9.2,7.6h4c0.4-2.7,1.7-6.4,5.2-6.4c4.1,0,5.4,5.5,5.4,9c0,1.4-0.3,9-5.4,9
				c-0.7,0-4.4-0.4-5.3-6.4h-4c1.3,7.1,7.8,7.6,9.3,7.6c9,0,9.5-8.6,9.5-10.3C167.5,29,159.6,28.3,157.9,28.3z"/>
			<path class="st0" d="M178.9,28.4c-9,0-8.8,6.4-8.8,8v0.9c0,4.1,3,6.3,4.8,7c-1.8,0-4.3,0-4.3,0v1.4c0,0,0.2,0,2.9,0
				c5,0,5.5,2.6,5.5,2.6h4.2c0,0-0.1-1.5-1.4-2.5c-1.9-1.3-3.5-1.2-4.7-2.1c-1.3-1-2.8-3.2-2.9-6.3V36c0-4.1,1.5-6,5.1-6
				c5.1,0,5.4,4.2,5.4,5.1v5.5h1.8v-5.5C186.3,29.4,180.9,28.4,178.9,28.4z"/>
			<g>
				<path class="st0" d="M126.9,41.4v6.9h-4.1v-7c0-3.8-0.8-5.7-3.8-5.7c-3,0-4.7,1.9-4.7,5.7v7h-4.1v-6.9c0,0,0,0,0,0v-5.7
					c0-1.6-0.1-7,8.3-7h6.7V30h-6.7c-3,0-4.3,1.8-4.3,5.6v1c0.9-1.2,2.4-2.2,4.7-2.2C127.2,34.2,126.9,39.8,126.9,41.4z"/>
			</g>
			<g>
				<path class="st0" d="M79.8,35.3c2.3-0.4,4.2-2.6,4.1-6.3C82,28.4,81,28.3,78,28.3c-6.6,0-7.5,2.8-7.5,5.5h4.1
					c0-2.7,1.6-4.2,4.2-4.2c1,0,1.4-0.1,2.4,0.2c-0.9,5.2-5.5,5.5-6.1,5.5c-6.5,1-6.9,5.7-6.9,6.7c0,6.5,7.9,6.9,9.5,6.9
					c9,0,9.5-5.8,9.5-6.9C87.3,38.2,83.3,35.4,79.8,35.3z M77.7,47.8c-0.8,0-5.5-0.3-5.5-5.7c0-0.9,0.3-5.7,5.5-5.7
					c4.1,0,5.4,3.5,5.4,5.7C83.2,43,82.9,47.8,77.7,47.8z"/>
			</g>
			<g>
				<path class="st0" d="M107.6,35.8v3.6c0,3.6-0.5,9.5-9.5,9.5c-1.5,0-8-0.5-9.3-7.6h4c0.9,5.9,4.6,6.4,5.3,6.4
					c5.1,0,5.5-5.1,5.5-6.5c0-0.4,0-5.5,0-5.9c0.1-3.5-0.5-5.5-3.4-5.5c-2.4,0-3.3,1.6-3.3,3.6c0,2.3,0,4.3,0,4.3h-3.7
					c0,0,0-5.1,0-5.1c0-1.4-1.2-2.6-2.5-2.6c-1.2,0-2.4,0-2.4,0l-0.1-1.3c0,0,1.7,0,2.6,0c1.6,0,2.9,0.7,3.7,1.9
					c0.9-1.2,2.5-2.1,5.7-2.1C101.8,28.4,107.6,28.4,107.6,35.8z"/>
			</g>
			<path class="st0" d="M144.6,35.1c0-0.9-0.3-5.1-5.4-5.1c-3.6,0-5.1,1.3-5.1,5.4v13h-4.1v-13c0-1.6-0.1-7,8.8-7c2,0,7.5,1,7.5,6.7
				v13.2h-1.8V35.1z"/>
		</g>
		<g>
			<path class="st0" d="M31.1,53c0.7,0.7,1.9,0.7,2.7,0l1.8-1.6h-6.3L31.1,53z"/>
			<path class="st0" d="M55.6,35.3c0-4.6-3.1-8.4-7.6-10v-1.8c0-1.7-0.4-4.6-5.2-4.6H31l1.3,1.7c0.8,1,2,1.5,3.3,1.5H43v0.1
				l-7.8,1.1c-1.9,0.3-3.8-0.2-5.3-1.4c-2-1.5-0.8-4.5,1.7-4.5c0,0,0,0,0,0h12.5c1.2,0,2.4-0.5,3.2-1.3l2.2-2.4H32.4
				c-5.7,0-8.9,2.9-8.9,7.4v6.6c0,0,0.1,0,0.2,0v0c0,0,12.8,0,19.9,0v5.5c-0.7-0.3-2.7-1.3-3.9-1.9c-1.2-0.6-2.7-0.7-3.8,0.1
				l-3.6,2.4l4,3.5v-1.6h1.2c0,0.1,0,0.1,0,0.2c0,0.7,0.6,1.3,1.4,1.3s1.4-0.6,1.4-1.3c0-0.1,0-0.1,0-0.2h3.3V46
				c-0.5,0-1.6,0.1-3.5,0.1c-1.5,0.1-3.1-0.3-3.9-0.8c-1-0.7-2-1.6-2-1.6l-3,1.9V33.4l-3-2.5c-0.8-0.6-2-0.7-2.8-0.1l-1.6,1.1l4.1,3
				c0,0,0,4.1,0,12.1c-0.9,0.8-3.5,0.2-3.5,0.2s1.3,1.3,1.7,1.7c0.7,0.7,2.3,1.1,3.5,0.5c0.6-0.3,2.4-1.2,2.4-1.2l2.6,1.3
				c1.2,0.6,2.4,0.9,4.6-0.4c0.9-0.6,3.9-2.4,4.7-2.9v0.1c0,0,0,0,0,0v11.4c3.5,0,6.4-2.6,6.4-5.8c0-2.8-2.2-5.1-5.1-5.6v-0.2
				C50.9,45.5,55.6,40.9,55.6,35.3z M43.5,35.5l-4.6-2.2h4.6V35.5z"/>
		</g>
	</g>
</g>
</svg>
