<svg width="25" height="17" viewBox="0 0 25 17" fill="none" xmlns="http://www.w3.org/2000/svg">
<path d="M24.4734 2.66297C24.1962 1.61392 23.337 0.80696 22.2561 0.511074C20.316 -1.63536e-06 12.5 0 12.5 0C12.5 0 4.71176 -1.63536e-06 2.74391 0.511074C1.66298 0.780062 0.831492 1.61392 0.526614 2.66297C6.77325e-06 4.54588 0 8.5 0 8.5C0 8.5 6.77325e-06 12.4272 0.526614 14.337C0.803776 15.3861 1.66298 16.193 2.74391 16.4889C4.68404 17 12.5 17 12.5 17C12.5 17 20.2882 17 22.2561 16.4889C23.337 16.2199 24.1685 15.3861 24.4734 14.337C25 12.4541 25 8.5 25 8.5C25 8.5 25 4.54588 24.4734 2.66297ZM10.0333 12.1313V4.86867L16.5189 8.5L10.0333 12.1313Z" fill="#BCBCBC"/>
</svg>
